# xmcd
#
# Track frame offsets:
# 150
# 19540
# 66547
# 72122
# 150942
# 156507
# 193082
# 221080
# 250492
# 272547
# 300845
#
# Disc length: 4435 seconds
#
#
# Revision: 0
# Processed by: cddbd v1.5.2PL0 Copyright (c) Steve Scherf et al.
# Submitted via: FreeRIP 2.951 
#
DISCID=9511510b
DTITLE=Lee Brown - Groovin' live
DYEAR=1998
DGENRE=Blues
TTITLE0=Ansage
TTITLE1=It's good to know Jesus
TTITLE2=Ansage
TTITLE3=Medley, I heard it thru the grapevine, Satisfaction, Oh happy day
TTITLE4=Ansage
TTITLE5=Stormy Monday blues
TTITLE6=Let the good times roll
TTITLE7=Killing me softly
TTITLE8=Ain't no mountain high enough
TTITLE9=Stand by me
TTITLE10=You are so beautiful
EXTD=
EXTT0=
EXTT1=
EXTT2=
EXTT3=
EXTT4=
EXTT5=
EXTT6=
EXTT7=
EXTT8=
EXTT9=
EXTT10=
PLAYORDER=
